<svg viewBox="0 0 1200 800"
	xmlns="http://www.w3.org/2000/svg">
	<path d="M241.142 65.62c-3.25 38.055 2.818 73.54 16.717 108.707l39.653.008c30.154 17.895 51.45 37.213 71.335 34.896 12.92-35.02-29.007-50.94-53.914-64.882 2.037-4.696 27.38-50.11 32.287-58.12 0 0 8.666 3.956 18.268 6.69l13.264-26.886c13.164-18.128 32.294-34.233 52.88-46.52 13.215-2.783 26.582-6.246 36.057 7.76-9.287 12.945-27.45 28.155-35.597 41.824-6.742 9.074-13.85 37-22.005 83.493-.953 11.32.257 21.38 2.21 31.01 9.736 23.702 20.82 51.947 33.2 68.46 26.273 21.203 56.105 37.61 84.723 55.467 5.334 26.84 7.85 51.525 10 84.168l4.084 70.066c9.11 39.724-5.6 91.147-.55 124.367 3.913 7.763 9.72 9.58 15.646 11.03l18.838-.17 1.226-22.346c18.002-1.41 62.33-1.596 80.113-3.39 16.41-4.668 31.655-9.91 40.055-18.52l2.492-21.37-25.662-37.1-6.633-32.094-24.705-51.433-7.68-96.45-4.534-62.286-8.395-18.48-9.52-10.454c-2.583-7.27-2.026-13.43-1.883-21.676l1.444-17.67c-3.664-1.212-6.383-.79-11.6-4.242-4.85-4.537-3.747-10.357 1.286-14.58 4.88-2.172 7.495-.185 10.975.212-.443-3.5-3.644-6.222.553-11.032 12.55-.953 24.602-1.113 35.483.59 6.55 1.466 12.848 5.72 18.837 11.085.948 3.605.554 7.21-.216 10.817-1.192 2.13-2.608 4.146-5.01 5.66l-2.27 42.675c-6.68 10.442-11.51 64.13 11.42 84.89 8.333 24.842 2.328 62.755 20.596 80.925 1.684 7.84 3.196 15.68 4.523 23.52 4.986 4.642 8.64 8.945 10.712 12.844l23.172.595c4.232-29.385 6.81-58.93 14.34-87.66 3.106-18.912 8.078-34.977 10.798-53.947 2.55-4.824 5.41-9.404 8.573-13.744.914-8.993 1.198-18.14 1.568-27.265-.303-12.77-6.318-21.395-12.664-31.98l-16.55-18.637c1.692-3.808 2.97-8.01 9.8-6.946l15.714 19.145c12.88 3.435 15.984-2.09 12.76-14.07-3.687-6.862-8.946-9.424-15.486-13.056-2.5-5.55-9.277-11.434 3.155-15.83l9.518-.337 8.82 8.554c19.984 7.218 15.465 24.044 15.164 36.858l-4.064 26.092c-16.044 24.09-15.125 52.682-12.964 80.516.16 22.658-.225 41.686-3.777 66.274-2.636 18.872-3.206 34.725 7.328 50.34-1.392 20.672.14 40.826 2.845 61.236 13.207 15.64 24.427 23.29 41.774 26.378 9.84-16.098.296-29.113-7.438-43.9 3.048-20.273 17.806-29.35 33.66-39.377l1.134-15.083c15.885.445 26.752.045 42.128-3.28 3.91-4.286-3.722-57.41-.974-62.018 3.228-5.41 11.437 13.15 19.17 36.982 3.15 9.706 4.823-24.977 6.357-35.684l.13-11.87c5.98-3.82 12.222-2.586 15.284.458-7.09 30.753 11.725 50.538 29.897 72.132 11.837 17.69 21.853 35.377 26.7 53.065 5.356 36.426 3.62 67.36-15.775 98.79-27.72 16.423-70.59 13.978-87.613 12.45-7.133 45.18-22.1 80.648-51.094 115.44-26.73 27.995-59.175 44.775-92.688 62.88-47.79 18.092-100.767 21.48-155.393 22.436-95.502-4.47-166.75-45.09-229.926-109.037-59.51-63.91-21.944-131.228 20.232-195.633 8.414-25.575 16.898-51.124 24.958-76.813 14.912-68.197-45.893-23.71-52.705-100.995-31.812-56.563-83.87-52.84-89.343-52.28-53.113-4.45-28.005 9.788-64.637 9.264 1.165-33.008 1.813-66.035 3.182-99.036l9.548-.044 2.117-70.84c.67-20.528 6.392-19.767 9.565-21.956z" fill="yellow"/>
</svg>
