<svg width="1200" height="800" xmlns="http://www.w3.org/2000/svg"><defs><marker id="a" orient="auto-start-reverse" markerWidth=".5" markerHeight=".5" viewBox="0 0 1 1" preserveAspectRatio="xMidYMid" overflow="visible"><path d="M1 0l-3 3h-2l3-3-3-3h2z" fill="context-stroke" fill-rule="evenodd"/></marker><marker id="b" orient="auto-start-reverse" markerWidth=".5" markerHeight=".5" viewBox="0 0 1 1" preserveAspectRatio="xMidYMid" overflow="visible"><path d="M1 0l-3 3h-2l3-3-3-3h2z" fill="context-stroke" fill-rule="evenodd"/></marker></defs><g fill="#f9f9f9"><path style="line-height:1.25;-inkscape-font-specification:'Franklin Gothic'" d="M879.598 335.574v-62.81l-40.34-98.557h42.61l21.305 63.473 25.62-63.473h36.248l-44.602 96.29v65.077zM721.607 335.574V174.207h68.01c9.556 0 17.93 1.66 25.125 4.98 7.194 3.284 12.69 7.858 16.49 13.724 3.837 5.83 5.756 12.434 5.756 19.812 0 6.383-1.347 12.267-4.04 17.653-2.656 5.387-6.29 9.832-10.902 13.337-4.61 3.468-9.758 5.83-15.44 7.083v.443c10.7 2.62 18.927 7.305 24.682 14.056 5.792 6.715 8.688 15.33 8.688 25.843 0 6.825-1.236 12.968-3.708 18.428-2.472 5.423-6.07 10.09-10.79 14-4.686 3.91-10.294 6.9-16.824 8.966-6.493 2.03-13.668 3.044-21.526 3.044zm40.84-70.28v40.342h14.94c5.535 0 10.312-1.53 14.334-4.593 4.06-3.062 6.088-8.32 6.088-15.772 0-6.086-1.79-10.937-5.368-14.553-3.58-3.615-8.596-5.423-15.052-5.423zm0-62.533v35.363h13.336c6.973 0 12.12-1.605 15.44-4.815 3.32-3.246 4.98-7.47 4.98-12.672 0-11.916-6.493-17.875-19.48-17.875zM526.427 335.574V174.207h40.84v62.532h31.93v-62.533h40.84v161.367h-40.84V269.39h-31.93v66.184zM404.516 205.473v-31.266h113.777v31.266h-36.47v130.1h-40.84v-130.1z" font-size="226.667" font-family="Franklin Gothic"/><path style="line-height:1.25;-inkscape-font-specification:'Franklin Gothic'" d="M291.183 335.574V174.207h60.762c10.44 0 19.755 1.66 27.946 4.98 8.19 3.284 14.61 8.375 19.258 15.274 4.65 6.863 6.973 15.366 6.973 25.512 0 8.41-2.47 15.956-7.414 22.633-4.944 6.64-11.455 11.492-19.535 14.554l26.95 78.414h-40.34l-20.2-69.837h-13.557v69.837zm40.84-131.484v35.804h7.913c16.934 0 25.4-5.885 25.4-17.653 0-7.6-2.305-12.524-6.917-14.775-4.575-2.25-11.105-3.375-19.59-3.375zM152.947 254.89c0-10.92 1.07-21.323 3.21-31.21 2.176-9.888 5.7-18.834 10.57-26.84 4.906-8.005 11.436-14.314 19.59-18.926 8.152-4.61 17.966-6.917 29.44-6.917 11.547 0 21.397 2.324 29.55 6.973 8.153 4.61 14.646 10.9 19.48 18.87 4.87 7.932 8.374 16.805 10.514 26.618 2.14 9.813 3.21 20.29 3.21 31.432 0 14.98-2.01 28.758-6.032 41.338-3.984 12.58-10.662 22.818-20.032 30.713-9.37 7.86-21.6 11.788-36.69 11.788-15.126 0-27.374-3.93-36.745-11.787-9.37-7.894-16.065-18.13-20.087-30.712-3.984-12.58-5.976-26.36-5.976-41.338zm43.994 0c0 13.355.296 23.538.887 30.547.59 6.973 2.25 12.618 4.98 16.934 2.73 4.317 7.046 6.476 12.95 6.476 5.902 0 10.218-2.16 12.948-6.475 2.73-4.315 4.39-9.96 4.98-16.933.59-7.01.886-17.192.886-30.547 0-10.182-.128-18.114-.386-23.795-.22-5.682-.904-10.847-2.048-15.495-1.143-4.685-3.025-8.3-5.644-10.846-2.62-2.546-6.198-3.82-10.736-3.82s-8.116 1.274-10.735 3.82c-2.582 2.545-4.445 6.124-5.59 10.735-1.105 4.61-1.806 9.794-2.102 15.55-.258 5.718-.387 13.668-.387 23.85zM26.664 335.574V174.207h34.033l46.43 86.77h.498V96.208h32.65v239.367h-32.65l-47.868-89.98h-.443v89.98zM1059.56 427.247V394.78h121.976v32.467h-44.668V625.85h-40.84V427.246zM942.352 588.218l33.812-13.613c3.358 7.747 7.028 13.54 11.013 17.376 4.02 3.838 9.63 5.757 16.823 5.757 4.685 0 8.65-1.31 11.898-3.93 3.246-2.62 4.87-5.847 4.87-9.684 0-7.12-2.16-11.934-6.475-14.443-4.317-2.51-13.06-6.456-26.23-11.843-13.17-5.423-22.948-11.73-29.33-18.925-6.383-7.194-9.574-17.8-9.574-31.82 0-7.932 2.397-15.44 7.193-22.523 4.796-7.084 11.215-12.73 19.258-16.935 8.08-4.242 16.64-6.363 25.678-6.363 8.744 0 16.86 1.55 24.35 4.648 7.488 3.062 13.815 7.305 18.98 12.728 5.202 5.423 8.965 11.492 11.29 18.206l-32.374 13.614c-5.386-11.917-12.8-17.875-22.246-17.875-3.874 0-7.194 1.18-9.96 3.542-2.73 2.324-4.096 5.663-4.096 10.016 0 4.87 4.298 9.317 12.894 13.338 8.633 3.984 17.505 7.913 26.618 11.787 9.15 3.874 17.007 9.168 23.574 15.882 6.604 6.678 9.906 15.753 9.906 27.227 0 10.662-2.675 20.16-8.024 28.5-5.313 8.337-12.488 14.775-21.527 19.312-9.002 4.538-18.797 6.807-29.385 6.807-9.112 0-17.56-1.568-25.345-4.704-7.747-3.174-14.517-7.822-20.31-13.946-5.755-6.16-10.182-13.54-13.28-22.136z" font-size="226.667" font-family="Franklin Gothic"/><path style="line-height:1.25;-inkscape-font-specification:'Franklin Gothic'" d="M841.25 625.85V464.48h101.545v31.268H882.09v32.65h40.783v31.266H882.09V593.2h60.705v32.65zM684.198 625.85l-33.535-161.37h39.235l15.605 100.164H706l19.923-100.163h36.468l18.374 100.164h.442l18.15-100.163h31.268l-35.14 161.37H760.62l-19.036-107.192h-.498l-21.748 107.19zM526.427 625.85V464.48h40.84v62.534h31.93V464.48h40.84v161.37h-40.84v-66.186h-31.93v66.185zM404.516 495.748V464.48h113.777v31.268h-36.47v130.1h-40.84v-130.1z" font-size="226.667" font-family="Franklin Gothic"/><path style="line-height:1.25;-inkscape-font-specification:'Franklin Gothic'" d="M291.183 625.85V464.48h60.762c10.44 0 19.755 1.66 27.946 4.982 8.19 3.283 14.61 8.374 19.258 15.273 4.65 6.862 6.973 15.366 6.973 25.51 0 8.413-2.47 15.957-7.414 22.635-4.944 6.64-11.455 11.492-19.535 14.554l26.95 78.415h-40.34l-20.2-69.84h-13.557v69.84zm40.84-131.486v35.804h7.913c16.934 0 25.4-5.884 25.4-17.653 0-7.6-2.305-12.525-6.917-14.775-4.575-2.25-11.105-3.376-19.59-3.376zM152.947 545.165c0-10.92 1.07-21.324 3.21-31.21 2.176-9.888 5.7-18.835 10.57-26.84 4.906-8.006 11.436-14.315 19.59-18.926 8.152-4.613 17.966-6.918 29.44-6.918 11.547 0 21.397 2.324 29.55 6.972 8.153 4.612 14.646 10.902 19.48 18.87 4.87 7.933 8.374 16.805 10.514 26.62 2.14 9.812 3.21 20.29 3.21 31.43 0 14.98-2.01 28.76-6.032 41.34-3.984 12.58-10.662 22.817-20.032 30.712-9.37 7.858-21.6 11.787-36.69 11.787-15.126 0-27.374-3.93-36.745-11.787-9.37-7.895-16.065-18.133-20.087-30.713-3.984-12.58-5.976-26.36-5.976-41.338zm43.994 0c0 13.355.296 23.537.887 30.547.59 6.972 2.25 12.617 4.98 16.933 2.73 4.317 7.046 6.475 12.95 6.475 5.902 0 10.218-2.158 12.948-6.475 2.73-4.316 4.39-9.96 4.98-16.933.59-7.01.886-17.192.886-30.547 0-10.182-.128-18.114-.386-23.796-.22-5.682-.904-10.847-2.048-15.496-1.143-4.685-3.025-8.3-5.644-10.846-2.62-2.545-6.198-3.818-10.736-3.818s-8.116 1.273-10.735 3.818c-2.582 2.546-4.445 6.124-5.59 10.736-1.105 4.61-1.806 9.795-2.102 15.55-.258 5.718-.387 13.67-.387 23.85zM26.664 625.85V464.48h34.033l46.43 86.772h.498v-86.77h32.65v161.367h-32.65l-47.868-89.982h-.443v89.98z" font-size="226.667" font-family="Franklin Gothic"/><path d="M123.718 44.632c.004 4.108-.01 8.1.01 11.977.746 131.36.114 132.08.114 132.08" stroke="#f9f9f9" stroke-width="32.6" marker-start="url(#a)"/><path d="M931.735 411.21c144.532-.133 144.06-.124 144.06-.124" stroke="#f9f9f9" stroke-width="32.6" marker-start="url(#b)"/></g></svg>