<svg viewBox="0 0 1200 800">
	<rect id="beam" x="-10" y="0" width="10" height="800"></rect>
	<g id="title">
		<path d="m0 0v800h1200v-800zm618.9 328.1c14.4 0 27.132 3.0678 38.199 9.2012 11.2 6 19.867 14.465 26 25.398 6.2667 10.8 9.4004 23.267 9.4004 37.4 0 13.867-3.1337 26.268-9.4004 37.201-6.1333 10.8-14.8 19.265-26 25.398s-23.933 9.2012-38.199 9.2012c-14.4 0-27.2-3.0678-38.4-9.2012-11.067-6.1333-19.733-14.598-26-25.398-6.1334-10.933-9.2012-23.334-9.2012-37.201 0-14 3.0678-26.467 9.2012-37.4 6.2666-10.933 14.933-19.398 26-25.398 11.2-6.1333 24-9.2012 38.4-9.2012zm-431.4 3h45.199v80.6c0 8 1.9342 14 5.8008 18 3.8667 4 9.5334 6 17 6 7.4667 0 13.133-2 17-6 3.8667-4.1333 5.7989-10.133 5.7989-18v-80.6h45.201v80.6c0 11.733-2.8682 22.2-8.6015 31.4-5.7334 9.0667-13.799 16.134-24.199 21.201-10.267 5.0667-21.999 7.5996-35.199 7.5996s-25-2.5329-35.4-7.5996c-10.267-5.0667-18.267-12.134-24-21.201-5.7333-9.2-8.5996-19.667-8.5996-31.4zm150.8 0h49.6c20.533 0 36.4 4 47.6 12 11.333 8 17 19.2 17 33.6 0 9.0667-2.7985 17.001-8.3985 23.801-5.4666 6.8-13.002 12.067-22.601 15.801-9.4667 3.6-20 5.3984-31.6 5.3984h-8.4004v47h-43.199zm119.8 0h43.201v107.2h47.799v30.398h-91zm267.2 0h60.801l39.799 137.6h-47l-5.1992-26.398h-35.6l-5.8008 26.398h-45zm103.8 0h59.799c14.4 0 27.134 2.8663 38.201 8.5996 11.2 5.7333 19.867 13.733 26 24 6.2667 10.267 9.3984 22.001 9.3984 35.201 0 13.867-3.0659 26.066-9.1992 36.6-6 10.533-14.601 18.733-25.801 24.6-11.067 5.7333-23.933 8.5996-38.6 8.5996h-59.799zm-73.201 26.4-13.6 60.199h26.6zm-374.4 2.4004v33.6c2.6666 0.26667 5.5349 0.40039 8.6015 0.40039 7.0667 0 12.532-1.4671 16.398-4.4004 3.8666-2.9333 5.8008-7.2008 5.8008-12.801s-1.9342-9.7996-5.8008-12.6c-3.7334-2.8-9.1985-4.1992-16.398-4.1992zm237.2 3.4004c-5.4667 0-10.399 1.5988-14.799 4.7988-4.4 3.0667-7.8012 7.4-10.201 13-2.4 5.4667-3.5996 11.734-3.5996 18.801 0 10.667 2.6667 19.266 8 25.799s12.267 9.8008 20.801 9.8008c8.4 0 15.266-3.2674 20.6-9.8008 5.4666-6.5333 8.1992-15.132 8.1992-25.799 0-7.0667-1.2655-13.334-3.7988-18.801-2.4-5.6-5.8012-9.9333-10.201-13-4.4-3.2-9.4-4.7988-15-4.7988zm254.6 3.7988v65.6h13.6c10 0 17.601-3.1318 22.801-9.3984 5.3333-6.4 8-14.667 8-24.801 0-9.6-2.6008-17.201-7.8008-22.801-5.0667-5.7333-12.733-8.5996-23-8.5996z"/>
		<text x="174.1362" y="467.79831" fill="none" font-family="'Paytone One'" font-size="200px" letter-spacing="-10px" stroke="#ffffff" stroke-width="4">UPLOAD</text>
	</g>
	<rect id="reveal" x="0" y="0" width="1200" height="800"></rect>
</svg>
