<svg id="color-card" xmlns="http://www.w3.org/2000/svg" viewBox="0 0 1200 800">
  <path fill="#bababa" d="M0 0h168.376v535.183H0z"/>
  <path fill="#b4c615" d="M168.376 0h168.376v535.183H168.376z"/>
  <path fill="#20cab7" d="M336.752 0h168.376v535.183H336.752z"/>
  <path fill="#19d113" d="M505.128 0h177.576v535.183H505.128z"/>
  <path fill="#9e00a4" d="M681.304 0H855.88v535.183H681.304z"/>
  <path fill="#0200a0" d="M1024.256 0h180v535.183h-180z"/>
  <path fill="#9c0007" d="M855.88 0h168.376v535.183H855.88z"/>
  <path fill="#0000a0" d="M0 535.183h168.376v64.393H0z"/>
  <path fill="#20cab5" d="M682.704 535.183h173.163v64.393H682.704z"/>
  <path d="M506.542 535.183h176.063v64.393H506.542z"/>
  <path fill="#9f00a6" d="M336.752 535.183h170.763v64.393H336.752z"/>
  <path fill="#000201" d="M168.376 535.183h170.763v64.393H168.376z"/>
  <path d="M855.88 535.183h170.763v64.393H855.88z"/>
  <path fill="#b9bbba" d="M1026.643 535.183h173.763v64.393h-173.763z"/>
  <path d="M644.068 599.256H1200v200.746H644.068z"/>
  <path fill="#24003c" d="M422.466 599.254h221.601V800H422.466z"/>
  <path fill="#f4f6f6" d="M200.865 599.254h221.601V800H200.865z"/>
  <path fill="#020a2c" d="M0 599.254h200.865V800H0z"/>
</svg>
