<svg id="svg13" version="1.1" viewBox="0 0 1200 800" xmlns="http://www.w3.org/2000/svg" xmlns:xlink="http://www.w3.org/1999/xlink">
 <defs id="defs27">
  <radialGradient id="radialGradient5265" cx="226.73" cy="401.97" r="76.799" gradientTransform="matrix(.39818 .0025382 -.0043282 .67899 138.19 128.46)" gradientUnits="userSpaceOnUse" spreadMethod="reflect">
   <stop id="stop5259" stop-color="#8f302b" offset="0"/>
   <stop id="stop5261" stop-color="#ff3f0f" offset="1"/>
  </radialGradient>
  <filter id="filter9244" x="-.032329" y="-.021024" width="1.0616" height="1.0567" color-interpolation-filters="sRGB">
   <feGaussianBlur id="feGaussianBlur9246" stdDeviation="0.7458607"/>
  </filter>
 </defs>
 <g id="layer1">
  <rect id="bg" width="1200" height="800"/>
 </g>
 <path id="path21" d="m421.9 454.99h50.96v-4.48c-8.8-0.48-10.237-5.7639-9.92-18.56v-80.68h2.08c14.56 0 24 9.6403 28.8 25l4.48-0.8-5.7119-28.349-1.6927-6.7984c-26.363-0.11171-52.492-0.0526-79.715-0.0526-2.5019 0-4.2045-4e-3 -7.5712-0.0656l-0.4365 2.3619-6.5522 32.904 4.48 0.8c4.8-15.36 14.24-25 28.8-25h2.08v80.68c0 12.32-0.96 17.92-10.08 18.56z" stroke="#a3280e" stroke-width="4"/>
 <path id="path15623" d="m157.75 436.73-4.8233 68.103c3.8055-3.0089 2.2456-6.0964 12.774-9.0065 18.966-0.83885 28.582 8.0547 48.857 8.3201 0 0 17.552 0.6547 30.989-2.1306 10.505-2.1775 20.188-6.3187 24.096-7.98 16.094-11.734 28.314-23.936 30.517-48.353 1.6045-17.151 1.4171-23.753-5.7664-37.716-6.389-12.365-14.112-22.296-31.515-27.403-23.454-7.2486-70.483-16.598-58.839-44.723 10.033-25.943 48.571-21.998 66.554 4.0342l5.2469 8.7999 8.0358-44.795-6.1892 1.7466c-11.138-2.4339-3.3356-1.3318-23.568-4.952-44.008-13.169-93.959 1.3722-99.246 48.402-2.6051 24.3 1.6221 45.454 25.139 57.726l39.404 15.981 20.95 8.9296c25.192 17.413 2.168 45.248-10.004 49.405-16.454 2.1474-32.05 2.899-43.003-6.129-14.174-11.697-19.355-20.384-23.823-38.312z" fill="none" filter="url(#filter9244)" stroke="url(#radialGradient5265)" stroke-width="5.1769" style="mix-blend-mode:hard-light"/>
</svg>
