    <svg
      xmlns="http://www.w3.org/2000/svg"
      id="titleSvg"
      viewBox="0 0 1200 800"
      xmlns:xlink="http://www.w3.org/1999/xlink"
    >
      <defs id="defs105">
        <mask id="spotReveal">
          <ellipse
            id="ellipse2"
            cx="600"
            cy="380"
            fill="white"
            stroke="#d6d6d6"
            stroke-width="120"
            rx="600"
            ry="300"
          />
        </mask>
        <linearGradient id="linear1" xlink:href="#linearGradient3689">
          <stop id="stop1003" offset="0" stop-color="#e3280d" />
          <stop id="stop1106" offset=".19" stop-color="#d00b0b" />
          <stop id="stop1300" offset=".318" stop-color="#9d0707" />
          <stop id="stop1558" offset=".318" stop-color="#a11111" />
          <stop id="stop1624" offset=".445" stop-color="#ce1212" />
          <stop id="stop1818" offset=".529" stop-color="#df0b40" />
          <stop id="stop1884" offset=".636" stop-color="#ff4141" />
          <stop id="stop2142" offset=".777" stop-color="#ce4e34" />
          <stop id="stop2208" offset=".888" stop-color="#c75544" />
          <stop id="stop2274" offset=".95" stop-color="#e8572a" />
          <stop id="stop1005" offset="1" stop-color="#9f0000" />
        </linearGradient>
        <linearGradient id="linear2" x2="1" gradientUnits="objectBoundingBox">
          <stop id="stop9806" offset="0" stop-color="#e3280d" />
          <stop id="stop9808" offset="1" stop-color="#9f0000" />
        </linearGradient>

        <linearGradient id="linear3">
          <stop id="stop20" offset="0" stop-color="#f03417" />
          <stop id="stop22" offset=".25" stop-color="#ec4848" />
          <stop id="stop24" offset=".621" stop-color="#b40e0e" />
          <stop id="stop26" offset="1" stop-color="#7e1616" />
        </linearGradient>
        <linearGradient id="linear4" x2="1" gradientUnits="objectBoundingBox">
          <stop id="stop17" offset="0" stop-color="#bd220a" />
          <stop id="stop1852" offset=".46" stop-color="#ff673b" />
          <stop id="stop1982" offset=".64" stop-color="#b0412d" />
          <stop id="stop19" offset="1" stop-color="#af0000" />
        </linearGradient>
        <linearGradient id="linear5" x2="1" gradientUnits="objectBoundingBox">
          <stop id="stop16982" offset="0" stop-color="#fbb494" />
          <stop id="stop16984" offset=".652" stop-color="#c10606" />
          <stop id="stop16986" offset=".904" stop-color="#992929" />
          <stop id="stop16988" offset="1" stop-color="#9f0000" />
        </linearGradient>
        <linearGradient id="linear6" x2="1" gradientUnits="objectBoundingBox">
          <stop id="stop1646" offset="0" stop-color="#f76929" />
          <stop id="stop10941" offset=".652" stop-color="#c10606" />
          <stop id="stop12231" offset=".904" stop-color="#992929" />
          <stop id="stop1648" offset="1" stop-color="#9f0000" />
        </linearGradient>
        <linearGradient id="linear7" x2="1" gradientUnits="objectBoundingBox">
          <stop id="stop19499" offset="0" stop-color="#f86d3d" />
          <stop id="stop19501" offset=".652" stop-color="#c10606" />
          <stop id="stop19503" offset="1" stop-color="#ff7373" />
        </linearGradient>
        <linearGradient id="linear8" x2="1" gradientUnits="objectBoundingBox">
          <stop id="stop16331" offset="0" stop-color="#fa7878" />
          <stop id="stop16333" offset=".606" stop-color="#d10707" />
          <stop id="stop16337" offset="1" stop-color="#ff0c0c" />
        </linearGradient>
        <linearGradient id="linear9" x2="1" gradientUnits="objectBoundingBox">
          <stop id="stop16860" offset="0" stop-color="#f72323" />
          <stop id="stop16862" offset=".5" stop-color="#c10606" />
          <stop id="stop16864" offset=".904" stop-color="#992929" />
          <stop id="stop16866" offset="1" stop-color="#9f0000" />
        </linearGradient>
        <linearGradient id="linear10" x2="1" gradientUnits="objectBoundingBox">
          <stop id="stop16860" offset="0" stop-color="#f72323" />
          <stop id="stop16862" offset=".5" stop-color="#c10606" />
          <stop id="stop16864" offset=".904" stop-color="#992929" />
          <stop id="stop16866" offset="1" stop-color="#9f0000" />
        </linearGradient>
        <linearGradient id="linear11" xlink:href="#linearGradient3689">
          <stop offset="0" stop-color="#e3280d" />
          <stop offset=".19" stop-color="#d00b0b" />
          <stop offset=".318" stop-color="#9d0707" />
          <stop offset=".318" stop-color="#a11111" />
          <stop offset=".445" stop-color="#ce1212" />
          <stop offset=".529" stop-color="#df0b40" />
          <stop offset=".636" stop-color="#ff4141" />
          <stop offset=".777" stop-color="#ce4e34" />
          <stop offset=".888" stop-color="#c75544" />
          <stop offset=".95" stop-color="#e8572a" />
          <stop offset="1" stop-color="#9f0000" />
        </linearGradient>

        <radialGradient
          id="radial2"
          cx="1038.5"
          cy="213.52"
          r="76.168"
          gradientTransform="matrix(.020383 1.1666 -1.3959 .02439 1236.4 -1010)"
          gradientUnits="userSpaceOnUse"
          spreadMethod="repeat"
        >
          <stop
            id="stop2096"
            stop-color="#a41313"
            stop-opacity=".965"
            offset="0"
          />
          <stop
            id="stop2098"
            stop-color="#ff3636"
            stop-opacity=".981"
            offset=".317"
          />
          <stop id="stop2100" stop-color="#780e0e" offset="1" />
        </radialGradient>
        <radialGradient
          id="radial3"
          cx="599.01"
          cy="233.7"
          r="76.168"
          gradientTransform="matrix(.17493 .98458 -.42958 .076323 583.62 -389.03)"
          gradientUnits="userSpaceOnUse"
          spreadMethod="reflect"
        >
          <stop id="stop32104" stop-color="#ff3c3c" offset="0" />
          <stop id="stop32242" stop-color="#601414" offset=".397" />
          <stop id="stop32106" stop-color="#a41313" offset="1" />
        </radialGradient>
        <radialGradient
          id="radial4"
          cx="599.01"
          cy="233.7"
          r="76.168"
          gradientTransform="matrix(.17493 .98458 -.42958 .076323 583.62 -389.03)"
          gradientUnits="userSpaceOnUse"
          spreadMethod="reflect"
        >
          <stop id="stop25" stop-color="#ff3c3c" offset="0" />
          <stop id="stop930" stop-color="#b20000" offset=".504" />
          <stop id="stop29" stop-color="#a41313" offset="1" />
        </radialGradient>
        <radialGradient
          id="radial5"
          cx="599.01"
          cy="233.7"
          r="76.168"
          gradientTransform="matrix(.17493 .98458 -.42958 .076323 583.62 -389.03)"
          gradientUnits="userSpaceOnUse"
          spreadMethod="reflect"
        >
          <stop id="stop888" stop-color="#ff3c3c" offset="0" />
          <stop id="stop890" stop-color="#b20000" offset=".504" />
          <stop id="stop892" stop-color="#a41313" offset="1" />
        </radialGradient>
        <radialGradient
          id="radial6"
          cx="584.662"
          cy="132.79"
          r="76.168"
          gradientTransform="matrix(0.20929172,0.90109019,-1.3980547,0.32471578,788.92623,-398.70116)"
          gradientUnits="userSpaceOnUse"
          spreadMethod="reflect"
          fx="584.662"
          fy="132.79"
        >
          <stop id="stop30" stop-color="#ff795e" offset="0" />
          <stop id="stop32" stop-color="#dd0000" offset=".434" />
          <stop id="stop34" stop-color="#8f0909" offset="1" />
        </radialGradient>
        <radialGradient
          id="radial7"
          cx="1038.5"
          cy="213.52"
          r="76.168"
          gradientTransform="matrix(.020383 1.1666 -1.3959 .02439 1236.4 -1010)"
          gradientUnits="userSpaceOnUse"
          spreadMethod="repeat"
          xlink:href="#radialGradient3093"
        >
          <stop
            id="stop1369"
            stop-color="#a41313"
            stop-opacity=".965"
            offset="0"
          />
          <stop
            id="stop1441"
            stop-color="#ff3636"
            stop-opacity=".981"
            offset=".317"
          />
          <stop id="stop1371" stop-color="#780e0e" offset="1" />
        </radialGradient>
        <radialGradient
          id="radial8"
          cx="1119.217"
          cy="266.345"
          r="76.168"
          gradientTransform="matrix(0.45859098,-0.10559989,0.25027502,1.0868742,395.59865,196.34294)"
          gradientUnits="userSpaceOnUse"
          spreadMethod="reflect"
          fx="1119.217"
          fy="266.345"
        >
          <stop id="stop53" stop-color="#fb4524" offset="0" />
          <stop id="stop55" stop-color="#c01212" offset=".496" />
          <stop
            id="stop2573"
            stop-color="#d40d0d"
            stop-opacity=".992"
            offset=".818"
          />
          <stop id="stop57" stop-color="#ea0000" offset="1" />
        </radialGradient>
        <radialGradient
          id="radial10"
          cx="1255.604"
          cy="694.112"
          r="76.168"
          gradientUnits="userSpaceOnUse"
          gradientTransform="matrix(-0.00303244,-1.1965126,0.87627107,-0.00222109,-111.13317,2013.4497)"
          spreadMethod="reflect"
          fx="1246417.1"
          fy="171296.59"
        >
          <stop id="stop19297" offset="0" stop-color="#fe744f" />
          <stop id="stop19299" offset=".562" stop-color="#c70000" />
          <stop id="stop19301" offset=".814" stop-color="#c70c0c" />
          <stop id="stop19303" offset="1" stop-color="#ef0000" />
        </radialGradient>
        <radialGradient
          id="radial11"
          cx="599.01"
          cy="233.7"
          r="76.168"
          gradientUnits="userSpaceOnUse"
          gradientTransform="matrix(-0.00363234,1.2138745,-0.95898765,-0.00287155,814.3032,-507.87193)"
          spreadMethod="reflect"
          fx="599.01"
          fy="233.7"
        >
          <stop id="stop81" stop-color="#ff3c3c" offset="0" />
          <stop id="stop83" stop-color="#b20000" offset=".504" />
          <stop id="stop85" stop-color="#cc0000" offset="1" />
        </radialGradient>
        <radialGradient
          id="radial12"
          cx="599.01"
          cy="233.7"
          r="76.168"
          gradientUnits="userSpaceOnUse"
          gradientTransform="matrix(0.17493,0.98458,-0.42958,0.076323,583.62,-389.03)"
          spreadMethod="reflect"
        >
          <stop id="stop88" offset="0" stop-color="#f76929" />
          <stop id="stop90" offset=".652" stop-color="#c10606" />
          <stop id="stop92" offset=".904" stop-color="#992929" />
          <stop id="stop94" offset="1" stop-color="#9f0000" />
        </radialGradient>

        <radialGradient
          id="radial13"
          cx="1265.811"
          cy="434.638"
          r="76.168"
          gradientUnits="userSpaceOnUse"
          gradientTransform="matrix(-1.1179781,-0.00617289,0.00770787,-1.3960918,2067.2898,1091.9038)"
          spreadMethod="repeat"
          fx="1246427.2"
          fy="171037.12"
        >
          <stop id="stop99" offset="0" stop-color="#f72323" />
          <stop id="stop101" offset=".5" stop-color="#c10606" />
          <stop id="stop103" offset=".904" stop-color="#992929" />
          <stop id="stop105" offset="1" stop-color="#9f0000" />
        </radialGradient>
        <radialGradient
          id="radial14"
          cx="1066.76"
          cy="436.174"
          r="76.168"
          gradientUnits="userSpaceOnUse"
          gradientTransform="matrix(1.0442401,-0.01692979,0.02263214,1.3959296,-255.45409,-88.551079)"
          fx="1246228.2"
          fy="171038.66"
          spreadMethod="reflect"
        >
          <stop id="stop108" offset="0" stop-color="#ff7e69" />
          <stop id="stop110" offset=".447" stop-color="#f30101" />
          <stop id="stop112" offset=".904" stop-color="#b90909" />
          <stop id="stop114" offset="1" stop-color="#9f0000" />
        </radialGradient>
        <radialGradient
          id="radial15"
          cx="1038.5"
          cy="213.52"
          r="76.168"
          gradientTransform="matrix(.020383 1.1666 -1.3959 .02439 1236.4 -1010)"
          gradientUnits="userSpaceOnUse"
          spreadMethod="repeat"
          xlink:href="#radialGradient3093"
        >
          <stop
            id="stop1369"
            stop-color="#a41313"
            stop-opacity=".965"
            offset="0"
          />
          <stop
            id="stop1441"
            stop-color="#ff3636"
            stop-opacity=".981"
            offset=".317"
          />
          <stop id="stop1371" stop-color="#780e0e" offset="1" />
        </radialGradient>
      </defs>
      <rect id="bg" width="1200" height="800" />
      <g id="title">
        <rect
          id="top-box"
          width="898.19"
          height="12.222"
          x="153.11"
          y="259.4"
          fill="none"
          stroke="url(#linear1)"
          stroke-width="4"
          class="box"
          stroke-linecap="round"
          stroke-linejoin="round"
        />
        <rect
          id="bottom-left-box"
          width="169"
          height="12.114"
          x="152.15"
          y="460.32"
          fill="none"
          stroke="url(#linear1)"
          stroke-width="4"
          class="box"
          stroke-linecap="round"
          stroke-linejoin="round"
        />
        <rect
          id="bottom-right-box"
          width="149.8"
          height="12.317"
          x="923.83"
          y="457.42"
          fill="none"
          stroke="url(#linear1)"
          stroke-width="3.797"
          class="box"
          stroke-linecap="round"
          stroke-linejoin="round"
        />
        <path
          id="word1-s"
          fill="none"
          stroke="url(#linear11)"
          stroke-width="4"
          d="M168.6 389.73l-3.558 50.234c2.807-2.22 1.657-4.497 9.423-6.643 13.99-.61 21.083 5.95 36.038 6.14 0 0 12.947.49 22.858-1.57 7.75-1.6 14.9-4.66 17.78-5.88 11.87-8.656 20.89-17.656 22.51-35.666 1.187-12.65 1.05-17.52-4.25-27.82-4.71-9.12-10.41-16.446-23.245-20.213-17.3-5.346-51.99-12.242-43.4-32.99 7.4-19.135 35.826-16.225 49.09 2.977l3.87 6.49 5.93-33.04-4.566 1.287c-8.217-1.794-2.46-.98-17.385-3.652-32.46-9.712-69.308 1.014-73.208 35.704-1.923 17.923 1.195 33.527 18.542 42.58l29.064 11.787 15.45 6.587c18.583 12.844 1.6 33.376-7.38 36.44-12.136 1.586-23.64 2.14-31.72-4.52-10.454-8.627-14.276-15.035-17.57-28.26z"
        />
        <path
          id="word1-t"
          stroke="url(#linear3)"
          stroke-width="4"
          d="M288.34 406.53h50.96v-4.48c-8.8-.48-10.237-5.764-9.92-18.56v-80.68h2.08c14.56 0 24 9.64 28.8 25l4.48-.8-5.712-28.35-1.693-6.797c-26.363-.112-52.492-.053-79.715-.053-2.502 0-4.204-.004-7.57-.066l-.437 2.362-6.553 32.904 4.48.8c4.8-15.36 14.24-25 28.8-25h2.08v80.68c0 12.32-.96 17.92-10.08 18.56z"
        />
        <path
          id="word1-r1"
          stroke="url(#radial7)"
          stroke-width="4"
          d="M366.76 404.63h46.32v-4.48c-7.36-1.28-7.68-5.92-7.68-16.48v-28.32l6.08-1.92c15.52 15.84 22.08 34.24 22.08 40.16 0 3.2-1.44 4.8-5.44 6.56v4.48h49.76v-4.48c-6.56-.96-8.64-6.56-12.32-15.68-7.04-17.28-14.4-31.52-24.16-42.24 14.4-8.64 21.6-20 21.6-31.2 0-11.84-7.68-17.12-23.2-17.12h-73.04v4.48c7.36 1.28 7.68 5.92 7.68 16.48v68.8c0 10.56-.32 15.2-7.68 16.48zm38.64-61.44v-29.92c0-6.08.32-8.8 11.04-8.8 9.44 0 13.92 3.52 13.92 11.68 0 11.04-8.8 23.52-24.96 27.04z"
        />
        <path
          id="word1-a"
          stroke="url(#radial7)"
          stroke-width="4"
          d="M506.84 308.71l-24.64 71.44c-4 11.04-6.72 18.08-16.48 20v4.48h36.16v-4.48c-5.44 0-8.32-2.56-8.32-7.52 0-2.56.8-6.24 2.4-10.88l6.24-17.6c22.88 1.44 37.12 14.08 37.12 27.04 0 5.28-2.4 8-8.16 8.96v4.48h54.56v-4.48c-6.88-.32-9.12-5.76-12.64-16l-24.32-75.44c-.48-1.6-.96-3.2-.96-5.12 0-1.76 1.44-3.68 4.32-4.8v-4.48h-48.64v4.48c3.04 1.28 4.32 2.88 4.32 5.28 0 1.44-.32 3.04-.96 4.64zm-.32 43.76l11.2-34.32 11.68 42c-6.56-4.32-13.92-6.72-22.88-7.68z"
        />
        <path
          id="word1-n"
          stroke="url(#radial15)"
          stroke-width="4"
          d="M596.28 315.27v68.5c0 10.56-.32 15.2-7.68 16.48v4.48h31.36v-4.48c-9.28-.64-10.08-6.56-10.08-18.56v-67.38l58.56 69.3v3.68c0 8.96-1.12 12.64-9.92 12.96v4.48h31.36v-4.48c-7.36-1.28-7.68-5.92-7.68-16.48v-68.5c0-10.56.32-15.2 7.68-16.48v-4.48h-29.12v4.48c7.36 1.28 7.68 5.92 7.68 16.48v16.32l-20.64-22.88c-1.92-2.08-2.88-4.48-2.88-5.6 0-1.6 1.12-3.2 3.68-4.32v-4.48h-60v4.48c7.36 1.28 7.68 5.92 7.68 16.48z"
        />
        <path
          id="word1-g"
          fill="none"
          stroke="url(#radial6)"
          stroke-width="4"
          d="M762.66 362.15v15.52c0 10.72-.8 16.48-11.68 16.48-16.16 0-30.72-19.36-30.72-48.16 0-22.56 11.68-40.16 30.24-40.16 12.8 0 22.24 6.88 30.56 20.96h3.84l-4.96-35.2c-4.16 2.4-7.52 3.84-10.72 3.84-5.92 0-14.88-3.2-28.16-3.2-23.964 0-42.424 11.87-49.823 30.81-2.227 14.867-.86 29.565-1.34 44.36.22 1.398.528 2.8.958 4.086 6.746 20.175 17.09 32.45 50.53 32.898 25.9.61 40.803.356 63.042.27v-4.4c-8.32-1.6-9.127-5.464-9.127-15.704v-22.4c0-10.24.64-15.04 8.96-16.64v-4.32H753.7v4.32c8.32 1.6 8.96 6.4 8.96 16.64z"
        />
        <path
          id="word1-e"
          stroke="url(#linear4)"
          stroke-width="4"
          d="M814.78 404.63h83.92c2.88 0 5.6 0 8.48 1.76l13.6-43.52-4.16-1.28c-10.56 21.92-23.68 32.32-41.28 32.32-11.52 0-13.276-3.858-13.92-15.2v-35.2h8.16c13.28 0 18.72 5.44 22.72 18.72l3.2-1.28-6.88-40.8h-3.2c-1.28 10.72-4.96 12.32-15.04 12.32h-8.96v-11.04c0-9.12 1.28-16.24 11.04-16.24 17.28 0 29.44 8 35.84 23.68l4.16-.96-8.96-36.8c-1.76 2.24-4.8 3.2-9.12 3.2h-79.6v4.48c7.36 1.28 7.68 9.52 7.68 20.08v64.8c0 10.56-.32 15.2-7.68 16.48z"
        />
        <path
          id="word1-r2"
          stroke="url(#radial8)"
          stroke-width="4"
          d="M923.54 430.67h61.805v-5.73c-9.414-1.637-9.824-7.573-9.824-21.08v-36.223l7.78-2.456c19.85 20.27 28.24 43.8 28.24 51.37 0 4.1-1.84 6.14-6.95 8.39v5.73h63.648v-5.73c-8.393-1.22-11.05-8.39-15.76-20.05-9.002-22.1-18.42-40.314-30.9-54.03 18.418-11.05 27.627-20.462 27.627-34.79 0-15.14-9.822-21.9-29.675-21.9h-95.98v5.73c9.413 1.64 9.822 7.577 9.822 21.08v82.89c0 13.507-.41 19.442-9.822 21.08zm51.982-78.587V318.93c0-7.778.41-11.257 14.12-11.257 12.076 0 17.805 4.502 17.805 14.94 0 14.12-11.255 24.968-31.925 29.47z"
        />
        <path
          id="word2-t"
          fill="#000000"
          stroke="url(#linear3)"
          stroke-width="4"
          d="M357.06 551.61h50.96v-4.48c-8.8-.48-10.237-5.764-9.92-18.56v-80.68h2.08c14.56 0 24 9.64 28.8 25l4.48-.8-5.712-28.35-1.693-6.797c-26.363-.112-52.492-.053-79.715-.053-2.502 0-4.204-.004-7.57-.066l-.437 2.362-6.553 32.904 4.48.8c4.8-15.36 14.24-25 28.8-25h2.08v80.68c0 12.32-.96 17.92-10.08 18.56z"
        />
        <path
          id="word2-h"
          stroke="url(#radial10)"
          stroke-width="4"
          d="M477.1 482.15h27.04v48.84c0 10.56-.32 15.2-7.68 16.48v4.48h48.32v-4.48c-7.36-1.28-7.68-5.92-7.68-16.48v-68.2c0-10.56.32-15.2 7.68-16.48v-4.48h-48.32v4.48c7.36 1.28 7.68 5.92 7.68 16.48v8.32H477.1v-8.32c0-10.56.32-15.2 7.68-16.48v-4.48h-48.32v4.48c7.36 1.28 7.68 5.92 7.68 16.48v68.2c0 10.56-.32 15.2-7.68 16.48v4.48h48.32v-4.48c-7.36-1.28-7.68-5.92-7.68-16.48z"
        />
        <path
          id="word2-i"
          stroke="url(#radial12)"
          stroke-width="4"
          d="M553.5 551.95h46.32v-4.48c-7.36-1.28-7.68-5.92-7.68-16.48v-68.2c0-10.56.32-15.2 7.68-16.48v-4.48H553.5v4.48c7.36 1.28 7.68 5.92 7.68 16.48v68.2c0 10.56-.32 15.2-7.68 16.48z"
        />
        <path
          id="word2-n"
          stroke="url(#radial13)"
          stroke-width="4"
          d="M615.7 462.48v68.5c0 10.56-.32 15.2-7.68 16.48v4.48h31.36v-4.48c-9.28-.64-10.08-6.56-10.08-18.56v-67.38l58.56 69.3v3.68c0 8.96-1.12 12.64-9.92 12.96v4.48h31.36v-4.48c-7.36-1.28-7.68-5.92-7.68-16.48v-68.5c0-10.56.32-15.2 7.68-16.48v-4.48h-29.12V446c7.36 1.28 7.68 5.92 7.68 16.48v16.32l-20.64-22.88c-1.92-2.08-2.88-4.48-2.88-5.6 0-1.6 1.12-3.2 3.68-4.32v-4.48h-60V446c7.36 1.28 7.68 5.92 7.68 16.48z"
        />
        <path
          id="word2-g"
          stroke="url(#linear10)"
          stroke-width="4"
          d="M782.51 509.38v15.52c0 10.72-.8 16.48-11.68 16.48-16.16 0-30.72-19.36-30.72-48.16 0-22.56 11.68-40.16 30.24-40.16 12.8 0 22.24 6.88 30.56 20.96h3.84l-4.96-35.2c-4.16 2.4-7.52 3.84-10.72 3.84-5.92 0-14.88-3.2-28.16-3.2-23.964 0-42.424 11.87-49.823 30.81-2.227 14.867-.86 29.565-1.34 44.36.22 1.398.528 2.8.958 4.086 6.746 20.175 17.09 32.45 50.53 32.898 25.9.61 40.803.356 63.042.27v-4.4c-8.32-1.6-9.127-5.464-9.127-15.704v-22.4c0-10.24.64-15.04 8.96-16.64v-4.32h-50.56v4.32c8.32 1.6 8.96 6.4 8.96 16.64z"
        />
        <path
          id="word2-s"
          stroke="url(#radial14)"
          stroke-width="4"
          d="M892.84 479.29l-13.44-4.16c-8.96-2.88-14.08-5.28-14.08-12 0-6.24 5.76-11.2 14.88-11.2 11.52 0 22.56 7.84 30.08 22.56l4.48-.64-3.36-33.92c-2.88 1.6-5.28 2.56-7.52 2.56-8.8 0-19.52-3.2-32.16-3.2-25.92 0-40.64 13.76-40.64 33.28 0 15.52 8.8 26.64 26.56 32.4l12.8 4.16c12.8 4.16 20.8 5.76 20.8 16.16 0 8.8-7.36 14.24-21.28 14.24-19.84 0-32.96-11.68-36.32-32.8l-4.32.16 2.72 45.12c3.2-2.24 5.76-3.36 8.96-3.36 6.24 0 17.12 3.84 33.28 3.84 31.68 0 51.36-16.16 51.36-38.88 0-19.04-11.52-27.6-32.8-34.32z"
        />
      </g>
    </svg>
