<?xml version="1.0" encoding="UTF-8" standalone="no"?>
<svg
   viewBox="0 0 1200 800"
   version="1.1"
   id="svg13"
   sodipodi:docname="stranger-things.svg"
   inkscape:version="1.1.1 (3bf5ae0d25, 2021-09-20)"
   xmlns:inkscape="http://www.inkscape.org/namespaces/inkscape"
   xmlns:sodipodi="http://sodipodi.sourceforge.net/DTD/sodipodi-0.dtd"
   xmlns="http://www.w3.org/2000/svg"
   xmlns:svg="http://www.w3.org/2000/svg">
  <defs
     id="defs17" />
  <sodipodi:namedview
     id="namedview15"
     pagecolor="#ffffff"
     bordercolor="#666666"
     borderopacity="1.0"
     inkscape:pageshadow="2"
     inkscape:pageopacity="0.0"
     inkscape:pagecheckerboard="0"
     showgrid="false"
     inkscape:zoom="2.5420489"
     inkscape:cx="447.67039"
     inkscape:cy="371.94407"
     inkscape:window-width="1165"
     inkscape:window-height="1011"
     inkscape:window-x="0"
     inkscape:window-y="32"
     inkscape:window-maximized="0"
     inkscape:current-layer="svg13" />
  <rect
     id="bg"
     x="0"
     y="0"
     width="1200"
     height="800" />
  <rect
     x="925.24"
     y="449.54"
     width="168.95"
     height="14"
     fill="none"
     stroke="#a3280e"
     stroke-linecap="round"
     stroke-linejoin="round"
     stroke-width="4"
     id="rect3" />
  <path
     d="m 203.01441,340.33508 -16.04773,-4.9671 c -10.69835,-3.43868 -16.81185,-6.3044 -16.81185,-14.32819 0,-7.45071 6.87764,-13.37318 17.76699,-13.37318 13.75528,0 26.93729,9.36125 35.91631,26.93733 l 5.34921,-0.76427 -4.01179,-40.50121 c -3.43887,1.91042 -6.30447,3.05669 -8.97922,3.05669 -10.5073,0 -23.30723,-3.8209 -38.39976,-3.8209 -30.94903,0 -48.52506,16.42976 -48.52506,39.7371 0,18.53127 10.50742,29.42071 31.71326,36.2982 l 15.28356,4.96733 c 15.28349,4.96707 24.83564,6.87759 24.83564,19.29536 0,10.50729 -8.78801,17.00282 -25.40878,17.00282 -23.68952,0 -39.35506,-13.94608 -43.36702,-39.16378 l -5.15814,0.19092 3.24775,53.87439 c 3.82086,-2.67464 6.8776,-4.01195 10.69833,-4.01195 7.45083,0 20.44179,4.58507 39.73709,4.58507 37.8268,0 61.32523,-19.29536 61.32523,-46.42362 0,-22.73426 -13.75516,-30.56709 -39.16402,-38.59101 z"
     style="font-size:160px;font-family:'ITC Benguiat';stroke:#a3280e;stroke-width:4.77613"
     id="path19" />
  <path
     d="m 268.43857,405.03232 h 50.96 v -4.48 c -8.8,-0.48 -10.2372,-5.76393 -9.92,-18.56 V 301.312 h 2.08 c 14.56,0 24,9.64032 28.8,25.00032 l 4.48,-0.8 -5.71191,-28.34894 -1.69272,-6.79844 c -26.36349,-0.11171 -52.4916,-0.0526 -79.71537,-0.0526 -2.50187,0 -4.20453,-0.004 -7.57118,-0.0656 l -0.43658,2.36193 -6.55224,32.90363 4.48,0.8 c 4.8,-15.36 14.24,-25.00032 28.8,-25.00032 h 2.08 v 80.68032 c 0,12.32 -0.96,17.92 -10.08,18.56 z"
     style="font-size:160px;font-family:'ITC Benguiat';stroke:#a3280e;stroke-width:4"
     id="path21"
     sodipodi:nodetypes="cccscscccccccccscscc" />
  <path
     d="m 494.83819,308.71232 -24.64,67.84 c -4,11.04 -6.72,18.08 -16.48,20 v 4.48 h 36.16 v -4.48 c -5.44,0 -8.32,-2.56 -8.32,-7.52 0,-2.56 0.8,-6.24 2.4,-10.88 l 6.24,-17.6 c 22.88,1.44 37.12,14.08 37.12,27.04 0,5.28 -2.4,8 -8.16,8.96 v 4.48 h 54.56 v -4.48 c -6.88,-0.32 -9.12,-5.76 -12.64,-16 l -24.32,-71.84 c -0.48,-1.6 -0.96,-3.2 -0.96,-5.12 0,-1.76 1.44,-3.68 4.32,-4.8 v -4.48 h -48.64 v 4.48 c 3.04,1.28 4.32,2.88 4.32,5.28 0,1.44 -0.32,3.04 -0.96,4.64 z m -0.32,40.16 11.2,-30.72 11.68,38.4 c -6.56,-4.32 -13.92,-6.72 -22.88,-7.68 z"
     style="font-size:160px;font-family:'ITC Benguiat';stroke:#a3280e;stroke-width:4"
     id="path25" />
  <path
     d="m 354.75844,404.632 h 46.32 v -4.48 c -7.36,-1.28 -7.68,-5.92 -7.68,-16.48 v -28.32 l 6.08,-1.92 c 15.52,15.84 22.08,34.24 22.08,40.16 0,3.2 -1.44,4.8 -5.44,6.56 v 4.48 h 49.76 v -4.48 c -6.56,-0.96 -8.64,-6.56 -12.32,-15.68 -7.04,-17.28 -14.4,-31.52 -24.16,-42.24 14.4,-8.64 21.6,-20 21.6,-31.2 0,-11.84 -7.68,-17.12 -23.2,-17.12 h -73.04 v 4.48 c 7.36,1.28 7.68,5.92 7.68,16.48 v 68.8 c 0,10.56 -0.32,15.2 -7.68,16.48 z m 38.64,-61.44 v -29.92 c 0,-6.08 0.32,-8.8 11.04,-8.8 9.44,0 13.92,3.52 13.92,11.68 0,11.04 -8.8,23.52 -24.96,27.04 z"
     style="font-size:160px;font-family:'ITC Benguiat';stroke:#a3280e;stroke-width:4"
     id="path23"
     sodipodi:nodetypes="cccsccsccccccssccsscccsssc" />
  <path
     d="m 584.27816,315.27232 v 64.8 c 0,10.56 -0.32,15.2 -7.68,16.48 v 4.48 h 31.36 v -4.48 c -9.28,-0.64 -10.08,-6.56 -10.08,-18.56 v -63.68 l 58.56,65.6 v 3.68 c 0,8.96 -1.12,12.64 -9.92,12.96 v 4.48 h 31.36 v -4.48 c -7.36,-1.28 -7.68,-5.92 -7.68,-16.48 v -64.8 c 0,-10.56 0.32,-15.2 7.68,-16.48 v -4.48 h -29.12 v 4.48 c 7.36,1.28 7.68,5.92 7.68,16.48 v 16.32 l -20.64,-22.88 c -1.92,-2.08 -2.88,-4.48 -2.88,-5.6 0,-1.6 1.12,-3.2 3.68,-4.32 v -4.48 h -60 v 4.48 c 7.36,1.28 7.68,5.92 7.68,16.48 z"
     style="font-size:160px;font-family:'ITC Benguiat';stroke:#a3280e;stroke-width:4"
     id="path27" />
  <path
     d="m 763.95792,358.15232 v 15.52 c 0,10.72 -0.8,16.48 -11.68,16.48 -16.16,0 -30.72,-19.36 -30.72,-48.16 0,-22.56 11.68,-36.16 30.24,-36.16 12.8,0 22.24,6.88 30.56,20.96 h 3.84 l -4.96,-35.2 c -4.16,2.4 -7.52,3.84 -10.72,3.84 -5.92,0 -14.88,-3.2 -28.16,-3.2 -32.8,0 -52.48,18.24 -52.48,50.4 0,35.84 23.2,59.36 63.36,59.36 5.44,0 15.04,-0.96 28.8,-0.96 h 23.52 v -4 c -8.32,-1.6 -8.96,-6.24 -8.96,-16.48 v -22.4 c 0,-10.24 0.64,-15.04 8.96,-16.64 v -4.32 h -50.56 v 4.32 c 8.32,1.6 8.96,6.4 8.96,16.64 z"
     style="font-size:160px;font-family:'ITC Benguiat';stroke:#a3280e;stroke-width:4"
     id="path29" />
  <path
     d="m 817.0779,401.03232 h 77.92 c 2.88,0 5.6,0 8.48,1.76 l 13.6,-43.52 -4.16,-1.28 c -10.56,21.92 -23.68,32.32 -41.28,32.32 -11.52,0 -13.92,-3.84 -13.92,-15.2 v -35.2 h 8.16 c 13.28,0 18.72,5.44 22.72,18.72 l 3.2,-1.28 -6.88,-40.8 h -3.2 c -1.28,10.72 -4.96,12.32 -15.04,12.32 h -8.96 v -11.04 c 0,-9.12 1.28,-12.64 11.04,-12.64 17.28,0 29.44,8 35.84,23.68 l 4.16,-0.96 -8.96,-36.8 c -1.76,2.24 -4.8,3.2 -9.12,3.2 h -73.6 v 4.48 c 7.36,1.28 7.68,5.92 7.68,16.48 v 64.8 c 0,10.56 -0.32,15.2 -7.68,16.48 z"
     style="font-size:160px;font-family:'ITC Benguiat';stroke:#a3280e;stroke-width:4"
     id="path31" />
  <path
     d="m 926.67781,401.03232 h 48.32 v -4.48 c -7.36,-1.28 -7.68,-5.92 -7.68,-16.48 v -28.32 l 6.08,-1.92 c 15.52,15.84 22.08,34.24 22.08,40.16 0,3.2 -1.44,4.8 -5.44,6.56 v 4.48 h 49.75999 v -4.48 c -6.56,-0.96 -8.64,-6.56 -12.32,-15.68 -7.04,-17.28 -14.4,-31.52 -24.16,-42.24 14.4,-8.64 21.6,-16 21.6,-27.2 0,-11.84 -7.68,-17.12 -23.2,-17.12 h -75.03999 v 4.48 c 7.36,1.28 7.68,5.92 7.68,16.48 v 64.8 c 0,10.56 -0.32,15.2 -7.68,16.48 z m 40.64,-61.44 v -25.92 c 0,-6.08 0.32,-8.8 11.04,-8.8 9.44,0 13.92,3.52 13.92,11.68 0,11.04 -8.8,19.52 -24.96,23.04 z"
     style="font-size:160px;font-family:'ITC Benguiat';stroke:#a3280e;stroke-width:4"
     id="path33" />
  <g
     aria-label="THINGS"
     id="text7"
     style="font-size:160px;font-family:'ITC Benguiat';stroke:#a3280e;stroke-width:4">
    <path
       d="m 316.97965,536.1662 h 52.96 v -4.48 c -8.8,-0.48 -9.92,-5.76 -9.92,-18.56 v -70.88 c 0.8,0 1.44,0 2.08,0 14.56,0 24,7.84 28.8,23.2 l 4.48,-0.8 -7.52,-36.96 c -2.56,1.6 -4.64,1.76 -7.2,1.76 h -74.4 c -2.56,0 -4.64,-0.16 -7.2,-1.76 l -7.36,36.96 4.48,0.8 c 4.8,-15.36 14.24,-23.2 28.8,-23.2 0.64,0 1.28,0 2.08,0 v 70.88 c 0,12.32 -0.96,17.92 -10.08,18.56 z"
       style="font-size:160px;font-family:'ITC Benguiat';stroke:#a3280e;stroke-width:4"
       id="path54" />
    <path
       d="m 441.93951,469.7662 h 27.04 v 45.44 c 0,10.56 -0.32,15.2 -7.68,16.48 v 4.48 h 48.32 v -4.48 c -7.36,-1.28 -7.68,-5.92 -7.68,-16.48 v -64.8 c 0,-10.56 0.32,-15.2 7.68,-16.48 v -4.48 h -48.32 v 4.48 c 7.36,1.28 7.68,5.92 7.68,16.48 v 8.32 h -27.04 v -8.32 c 0,-10.56 0.32,-15.2 7.68,-16.48 v -4.48 h -48.32 v 4.48 c 7.36,1.28 7.68,5.92 7.68,16.48 v 64.8 c 0,10.56 -0.32,15.2 -7.68,16.48 v 4.48 h 48.32 v -4.48 c -7.36,-1.28 -7.68,-5.92 -7.68,-16.48 z"
       style="font-size:160px;font-family:'ITC Benguiat';stroke:#a3280e;stroke-width:4"
       id="path56" />
    <path
       d="m 524.33937,536.1662 h 48.32 v -4.48 c -7.36,-1.28 -7.68,-5.92 -7.68,-16.48 v -64.8 c 0,-10.56 0.32,-15.2 7.68,-16.48 v -4.48 h -48.32 v 4.48 c 7.36,1.28 7.68,5.92 7.68,16.48 v 64.8 c 0,10.56 -0.32,15.2 -7.68,16.48 z"
       style="font-size:160px;font-family:'ITC Benguiat';stroke:#a3280e;stroke-width:4"
       id="path58" />
    <path
       d="m 595.05923,450.4062 v 64.8 c 0,10.56 -0.32,15.2 -7.68,16.48 v 4.48 h 31.36 v -4.48 c -9.28,-0.64 -10.08,-6.56 -10.08,-18.56 v -63.68 l 58.56,65.6 v 3.68 c 0,8.96 -1.12,12.64 -9.92,12.96 v 4.48 h 31.36 v -4.48 c -7.36,-1.28 -7.68,-5.92 -7.68,-16.48 v -64.8 c 0,-10.56 0.32,-15.2 7.68,-16.48 v -4.48 h -29.12 v 4.48 c 7.36,1.28 7.68,5.92 7.68,16.48 v 16.32 l -20.64,-22.88 c -1.92,-2.08 -2.88,-4.48 -2.88,-5.6 0,-1.6 1.12,-3.2 3.68,-4.32 v -4.48 h -60 v 4.48 c 7.36,1.28 7.68,5.92 7.68,16.48 z"
       style="font-size:160px;font-family:'ITC Benguiat';stroke:#a3280e;stroke-width:4"
       id="path60" />
    <path
       d="m 774.73898,493.2862 v 15.52 c 0,10.72 -0.8,16.48 -11.68,16.48 -16.16,0 -30.72,-19.36 -30.72,-48.16 0,-22.56 11.68,-36.16 30.24,-36.16 12.8,0 22.24,6.88 30.56,20.96 h 3.84 l -4.96,-35.2 c -4.16,2.4 -7.52,3.84 -10.72,3.84 -5.92,0 -14.88,-3.2 -28.16,-3.2 -32.8,0 -52.48,18.24 -52.48,50.4 0,35.84 23.2,59.36 63.36,59.36 5.44,0 15.04,-0.96 28.8,-0.96 h 23.52 v -4 c -8.32,-1.6 -8.96,-6.24 -8.96,-16.48 v -22.4 c 0,-10.24 0.64,-15.04 8.96,-16.64 v -4.32 h -50.56 v 4.32 c 8.32,1.6 8.96,6.4 8.96,16.64 z"
       style="font-size:160px;font-family:'ITC Benguiat';stroke:#a3280e;stroke-width:4"
       id="path62" />
    <path
       d="m 888.97896,467.2062 -13.44,-4.16 c -8.96,-2.88 -14.08,-5.28 -14.08,-12 0,-6.24 5.76,-11.2 14.88,-11.2 11.52,0 22.56,7.84 30.08,22.56 l 4.48,-0.64 -3.36,-33.92 c -2.88,1.6 -5.28,2.56 -7.52,2.56 -8.8,0 -19.52,-3.2 -32.16,-3.2 -25.92,0 -40.64,13.76 -40.64,33.28 0,15.52 8.8,24.64 26.56,30.4 l 12.8,4.16 c 12.8,4.16 20.8,5.76 20.8,16.16 0,8.8 -7.36,14.24 -21.28,14.24 -19.84,0 -32.96,-11.68 -36.32,-32.8 l -4.32,0.16 2.72,45.12 c 3.2,-2.24 5.76,-3.36 8.96,-3.36 6.24,0 17.12,3.84 33.28,3.84 31.68,0 51.36,-16.16 51.36,-38.88 0,-19.04 -11.52,-25.6 -32.8,-32.32 z"
       style="font-size:160px;font-family:'ITC Benguiat';stroke:#a3280e;stroke-width:4"
       id="path64" />
  </g>
  <rect
     x="105.81"
     y="263.09"
     width="965.55"
     height="14"
     fill="none"
     stroke="#a3280e"
     stroke-linecap="round"
     stroke-linejoin="round"
     stroke-width="4"
     id="rect9" />
  <rect
     x="111.29"
     y="452.78"
     width="168.95"
     height="14"
     fill="none"
     stroke="#a3280e"
     stroke-linecap="round"
     stroke-linejoin="round"
     stroke-width="4"
     id="rect11" />
</svg>
