<svg xmlns="http://www.w3.org/2000/svg" viewBox="0 0 1200 800">
	<path d="M0 0h1200v800H0z" />
	<path class="letter" fill="none" stroke="#a3280e" stroke-width="4" d="M925.39 457.37h169.032v10.927H925.39z" stroke-linecap="round" stroke-linejoin="round" />
	<path class="letter" stroke="#a3280e" stroke-width="4" d="M288.34 406.53h50.96v-4.48c-8.8-.48-10.237-5.764-9.92-18.56v-80.68h2.08c14.56 0 24 9.64 28.8 25l4.48-.8-5.712-28.35-1.693-6.797c-26.363-.112-52.492-.053-79.715-.053-2.502 0-4.204-.004-7.57-.066l-.437 2.362-6.553 32.904 4.48.8c4.8-15.36 14.24-25 28.8-25h2.08v80.68c0 12.32-.96 17.92-10.08 18.56zm218.5-97.82l-24.64 71.44c-4 11.04-6.72 18.08-16.48 20v4.48h36.16v-4.48c-5.44 0-8.32-2.56-8.32-7.52 0-2.56.8-6.24 2.4-10.88l6.24-17.6c22.88 1.44 37.12 14.08 37.12 27.04 0 5.28-2.4 8-8.16 8.96v4.48h54.56v-4.48c-6.88-.32-9.12-5.76-12.64-16l-24.32-75.44c-.48-1.6-.96-3.2-.96-5.12 0-1.76 1.44-3.68 4.32-4.8v-4.48h-48.64v4.48c3.04 1.28 4.32 2.88 4.32 5.28 0 1.44-.32 3.04-.96 4.64zm-.32 43.76l11.2-34.32 11.68 42c-6.56-4.32-13.92-6.72-22.88-7.68z" />
	<path class="letter" stroke="#a3280e" stroke-width="4" d="M366.76 404.63h46.32v-4.48c-7.36-1.28-7.68-5.92-7.68-16.48v-28.32l6.08-1.92c15.52 15.84 22.08 34.24 22.08 40.16 0 3.2-1.44 4.8-5.44 6.56v4.48h49.76v-4.48c-6.56-.96-8.64-6.56-12.32-15.68-7.04-17.28-14.4-31.52-24.16-42.24 14.4-8.64 21.6-20 21.6-31.2 0-11.84-7.68-17.12-23.2-17.12h-73.04v4.48c7.36 1.28 7.68 5.92 7.68 16.48v68.8c0 10.56-.32 15.2-7.68 16.48zm38.64-61.44v-29.92c0-6.08.32-8.8 11.04-8.8 9.44 0 13.92 3.52 13.92 11.68 0 11.04-8.8 23.52-24.96 27.04zm190.88-27.92v68.5c0 10.56-.32 15.2-7.68 16.48v4.48h31.36v-4.48c-9.28-.64-10.08-6.56-10.08-18.56v-67.38l58.56 69.3v3.68c0 8.96-1.12 12.64-9.92 12.96v4.48h31.36v-4.48c-7.36-1.28-7.68-5.92-7.68-16.48v-68.5c0-10.56.32-15.2 7.68-16.48v-4.48h-29.12v4.48c7.36 1.28 7.68 5.92 7.68 16.48v16.32l-20.64-22.88c-1.92-2.08-2.88-4.48-2.88-5.6 0-1.6 1.12-3.2 3.68-4.32v-4.48h-60v4.48c7.36 1.28 7.68 5.92 7.68 16.48z" />
	<path class="letter" stroke="#a3280e" stroke-width="4" d="M762.66 362.15v15.52c0 10.72-.8 16.48-11.68 16.48-16.16 0-30.72-19.36-30.72-48.16 0-22.56 11.68-40.16 30.24-40.16 12.8 0 22.24 6.88 30.56 20.96h3.84l-4.96-35.2c-4.16 2.4-7.52 3.84-10.72 3.84-5.92 0-14.88-3.2-28.16-3.2-23.964 0-42.424 11.87-49.823 30.81-2.227 14.867-.86 29.565-1.34 44.36.22 1.398.528 2.8.958 4.086 6.746 20.175 17.09 32.45 50.53 32.898 25.9.61 40.803.356 63.042.27v-4.4c-8.32-1.6-9.127-5.464-9.127-15.704v-22.4c0-10.24.64-15.04 8.96-16.64v-4.32H753.7v4.32c8.32 1.6 8.96 6.4 8.96 16.64zm52.12 42.48h81.92c2.88 0 5.6 0 8.48 1.76l13.6-43.52-4.16-1.28c-10.56 21.92-23.68 32.32-41.28 32.32-11.52 0-13.276-3.858-13.92-15.2v-35.2h8.16c13.28 0 18.72 5.44 22.72 18.72l3.2-1.28-6.88-40.8h-3.2c-1.28 10.72-4.96 12.32-15.04 12.32h-8.96v-11.04c0-9.12 1.28-16.24 11.04-16.24 17.28 0 29.44 8 35.84 23.68l4.16-.96-8.96-36.8c-1.76 2.24-4.8 3.2-9.12 3.2h-77.6v4.48c7.36 1.28 7.68 9.52 7.68 20.08v64.8c0 10.56-.32 15.2-7.68 16.48zM925.24 430.67h61.805v-5.73c-9.414-1.637-9.824-7.573-9.824-21.08v-36.223l7.78-2.457c19.852 20.262 28.242 43.797 28.242 51.37 0 4.092-1.842 6.14-6.957 8.39v5.73h63.646v-5.73c-8.393-1.228-11.05-8.39-15.76-20.056-9.002-22.103-18.42-40.317-30.9-54.028 18.418-11.052 27.627-20.466 27.627-34.79 0-15.145-9.822-21.9-29.675-21.9h-95.98v5.73c9.413 1.638 9.822 7.573 9.822 21.08v82.885c0 13.51-.41 19.444-9.823 21.08zm51.982-78.587V318.93c0-7.778.41-11.257 14.12-11.257 12.076 0 17.805 4.502 17.805 14.94 0 14.12-11.255 24.968-31.925 29.47zM479.1 482.15h27.04v48.84c0 10.56-.32 15.2-7.68 16.48v4.48h48.32v-4.48c-7.36-1.28-7.68-5.92-7.68-16.48v-68.2c0-10.56.32-15.2 7.68-16.48v-4.48h-48.32v4.48c7.36 1.28 7.68 5.92 7.68 16.48v8.32H479.1v-8.32c0-10.56.32-15.2 7.68-16.48v-4.48h-48.32v4.48c7.36 1.28 7.68 5.92 7.68 16.48v68.2c0 10.56-.32 15.2-7.68 16.48v4.48h48.32v-4.48c-7.36-1.28-7.68-5.92-7.68-16.48zm-120.04 69.46h50.96v-4.48c-8.8-.48-10.237-5.764-9.92-18.56v-80.68h2.08c14.56 0 24 9.64 28.8 25l4.48-.8-5.712-28.35-1.693-6.797c-26.363-.112-52.492-.053-79.715-.053-2.502 0-4.204-.004-7.57-.066l-.437 2.362-6.553 32.904 4.48.8c4.8-15.36 14.24-25 28.8-25h2.08v80.68c0 12.32-.96 17.92-10.08 18.56zm196.44.34h46.32v-4.48c-7.36-1.28-7.68-5.92-7.68-16.48v-68.2c0-10.56.32-15.2 7.68-16.48v-4.48H555.5v4.48c7.36 1.28 7.68 5.92 7.68 16.48v68.2c0 10.56-.32 15.2-7.68 16.48zm339.34-72.66l-13.44-4.16c-8.96-2.88-14.08-5.28-14.08-12 0-6.24 5.76-11.2 14.88-11.2 11.52 0 22.56 7.84 30.08 22.56l4.48-.64-3.36-33.92c-2.88 1.6-5.28 2.56-7.52 2.56-8.8 0-19.52-3.2-32.16-3.2-25.92 0-40.64 13.76-40.64 33.28 0 15.52 8.8 26.64 26.56 32.4l12.8 4.16c12.8 4.16 20.8 5.76 20.8 16.16 0 8.8-7.36 14.24-21.28 14.24-19.84 0-32.96-11.68-36.32-32.8l-4.32.16 2.72 45.12c3.2-2.24 5.76-3.36 8.96-3.36 6.24 0 17.12 3.84 33.28 3.84 31.68 0 51.36-16.16 51.36-38.88 0-19.04-11.52-27.6-32.8-34.32z" />
	<path class="letter" fill="none" stroke="#a3280e" stroke-width="4" d="M153.016 259.306h899.265v11.02H153.018zM152.057 459.9H321.09v10.926H152.057z" stroke-linecap="round" stroke-linejoin="round" />
	<path class="letter" fill="none" stroke="#a3280e" stroke-width="4" d="M155.7 389.73l-3.558 50.234c2.807-2.22 1.657-4.497 9.423-6.643 13.99-.617 21.083 5.943 36.038 6.14 0 0 12.947.482 22.858-1.573 7.75-1.606 14.893-4.66 17.776-5.886 11.87-8.655 20.885-17.655 22.51-35.665 1.183-12.65 1.045-17.52-4.254-27.82-4.71-9.12-10.408-16.446-23.245-20.213-17.3-5.346-51.99-12.242-43.4-32.988 7.4-19.136 35.826-16.226 49.09 2.976l3.872 6.49 5.926-33.04-4.565 1.287c-8.216-1.795-2.46-.982-17.384-3.653-32.46-9.714-69.306 1.012-73.206 35.702-1.923 17.924 1.195 33.528 18.542 42.58l29.065 11.788 15.453 6.587c18.582 12.844 1.6 33.376-7.38 36.44-12.137 1.586-23.64 2.14-31.72-4.52-10.455-8.627-14.277-15.035-17.572-28.26z" />
	<path class="letter" stroke="#a3280e" stroke-width="4" d="M784.51 509.38v15.52c0 10.72-.8 16.48-11.68 16.48-16.16 0-30.72-19.36-30.72-48.16 0-22.56 11.68-40.16 30.24-40.16 12.8 0 22.24 6.88 30.56 20.96h3.84l-4.96-35.2c-4.16 2.4-7.52 3.84-10.72 3.84-5.92 0-14.88-3.2-28.16-3.2-23.964 0-42.424 11.87-49.823 30.81-2.227 14.867-.86 29.565-1.34 44.36.22 1.398.528 2.8.958 4.086 6.746 20.175 17.09 32.45 50.53 32.898 25.9.61 40.803.356 63.042.27v-4.4c-8.32-1.6-9.127-5.464-9.127-15.704v-22.4c0-10.24.64-15.04 8.96-16.64v-4.32h-50.56v4.32c8.32 1.6 8.96 6.4 8.96 16.64zm-166.81-46.9v68.5c0 10.56-.32 15.2-7.68 16.48v4.48h31.36v-4.48c-9.28-.64-10.08-6.56-10.08-18.56v-67.38l58.56 69.3v3.68c0 8.96-1.12 12.64-9.92 12.96v4.48h31.36v-4.48c-7.36-1.28-7.68-5.92-7.68-16.48v-68.5c0-10.56.32-15.2 7.68-16.48v-4.48h-29.12V446c7.36 1.28 7.68 5.92 7.68 16.48v16.32l-20.64-22.88c-1.92-2.08-2.88-4.48-2.88-5.6 0-1.6 1.12-3.2 3.68-4.32v-4.48h-60V446c7.36 1.28 7.68 5.92 7.68 16.48z" />
</svg>
